# xmcd CD database file
#
# Track frame offsets:
#	150
#	28023
#	57272
#	76704
#	94897
#	122703
#	138638
#
# Disc length: 2137 seconds
#
# Revision: 0
# Processed by: cddbd v1.5.1PL2 Copyright (c) Steve Scherf et al.
# Submitted via: CDex 1.70beta1
#
DISCID=57085707
DTITLE=Walter Andrade - Redimidos por Cristo
DYEAR=2005
DGENRE=Salsa
TTITLE0=Hoy es el dia 01
TTITLE1=Yo me encontraba perdido 02
TTITLE2=El gozo 03
TTITLE3=Cara a cara 04
TTITLE4=Alabare 05
TTITLE5=Sigo alabando 06
TTITLE6=Jesus nacio 07
EXTD=YEAR: 2005
EXTT0=
EXTT1=
EXTT2=
EXTT3=
EXTT4=
EXTT5=
EXTT6=
PLAYORDER=
